<svg width="21" height="21" viewBox="0 0 21 21" fill="none" xmlns="http://www.w3.org/2000/svg">
<path d="M11.8682 3.80632C11.8682 2.88965 12.6182 2.13965 13.5348 2.13965M16.8682 2.13965C17.7848 2.13965 18.5348 2.88965 18.5348 3.80632M18.5348 7.13965C18.5348 8.05632 17.7848 8.80632 16.8682 8.80632M13.5348 8.80632C12.6182 8.80632 11.8682 8.05632 11.8682 7.13965M2.7015 6.30632L5.2015 8.80632M5.2015 8.80632L7.7015 6.30632M5.2015 8.80632V4.63965C5.2015 3.22298 6.28483 2.13965 7.7015 2.13965H8.53483M3.53483 12.1396H6.86816C7.78864 12.1396 8.53483 12.8858 8.53483 13.8063V17.1396C8.53483 18.0601 7.78864 18.8063 6.86816 18.8063H3.53483C2.61436 18.8063 1.86816 18.0601 1.86816 17.1396V13.8063C1.86816 12.8858 2.61436 12.1396 3.53483 12.1396Z" stroke="#333333" stroke-width="1.5" stroke-linecap="round" stroke-linejoin="round"/>
</svg>
