<svg width="25" height="25" viewBox="0 0 25 25" fill="none" xmlns="http://www.w3.org/2000/svg">
<path d="M15.1969 6.87253L18.3969 10.0726M20.1362 8.32216C20.5591 7.89929 20.7968 7.32571 20.7969 6.72761C20.797 6.1295 20.5594 5.55586 20.1366 5.13289C19.7137 4.70991 19.1401 4.47224 18.542 4.47217C17.9439 4.47209 17.3703 4.70962 16.9473 5.13249L6.27044 15.8119C6.08469 15.9971 5.94732 16.2252 5.87043 16.4759L4.81362 19.9576C4.79295 20.0268 4.79139 20.1003 4.8091 20.1703C4.82682 20.2403 4.86316 20.3042 4.91426 20.3552C4.96536 20.4063 5.02932 20.4425 5.09935 20.4601C5.16938 20.4777 5.24287 20.476 5.31203 20.4552L8.79446 19.3992C9.045 19.323 9.273 19.1865 9.45847 19.0016L20.1362 8.32216Z" stroke="black" stroke-width="1.5" stroke-linecap="round" stroke-linejoin="round"/>
</svg>
