<svg width="18" height="18" viewBox="0 0 18 18" fill="none" xmlns="http://www.w3.org/2000/svg">
<path d="M8.1665 8.16602V4.83268H9.83317V8.16602H13.1665V9.83268H9.83317V13.166H8.1665V9.83268H4.83317V8.16602H8.1665ZM8.99984 17.3327C4.39746 17.3327 0.666504 13.6017 0.666504 8.99935C0.666504 4.39697 4.39746 0.666016 8.99984 0.666016C13.6022 0.666016 17.3332 4.39697 17.3332 8.99935C17.3332 13.6017 13.6022 17.3327 8.99984 17.3327ZM8.99984 15.666C12.6818 15.666 15.6665 12.6813 15.6665 8.99935C15.6665 5.31745 12.6818 2.33268 8.99984 2.33268C5.31794 2.33268 2.33317 5.31745 2.33317 8.99935C2.33317 12.6813 5.31794 15.666 8.99984 15.666Z" fill="black"/>
</svg>
