<svg width="21" height="21" viewBox="0 0 21 21" fill="none" xmlns="http://www.w3.org/2000/svg">
<path d="M5.26822 8.38897L2.35155 9.7223C2.20839 9.7896 2.08733 9.89626 2.00254 10.0298C1.91775 10.1634 1.87273 10.3183 1.87273 10.4765C1.87273 10.6347 1.91775 10.7896 2.00254 10.9231C2.08733 11.0567 2.20839 11.1633 2.35155 11.2306L9.51822 14.489C9.73422 14.5868 9.9686 14.6374 10.2057 14.6374C10.4428 14.6374 10.6772 14.5868 10.8932 14.489L18.0432 11.239C18.1911 11.1738 18.3168 11.067 18.4051 10.9316C18.4933 10.7962 18.5403 10.6381 18.5403 10.4765C18.5403 10.3149 18.4933 10.1567 18.4051 10.0213C18.3168 9.88597 18.1911 9.77917 18.0432 9.71397L15.1265 8.38897M5.26822 12.5556L2.35155 13.889C2.20839 13.9563 2.08733 14.0629 2.00254 14.1965C1.91775 14.33 1.87273 14.4849 1.87273 14.6431C1.87273 14.8013 1.91775 14.9563 2.00254 15.0898C2.08733 15.2234 2.20839 15.33 2.35155 15.3973L9.51822 18.6556C9.73422 18.7534 9.9686 18.804 10.2057 18.804C10.4428 18.804 10.6772 18.7534 10.8932 18.6556L18.0432 15.4056C18.1911 15.3404 18.3168 15.2336 18.4051 15.0983C18.4933 14.9629 18.5403 14.8047 18.5403 14.6431C18.5403 14.4815 18.4933 14.3234 18.4051 14.188C18.3168 14.0526 18.1911 13.9458 18.0432 13.8806L15.1265 12.5556M10.8932 2.28897C10.6761 2.18993 10.4402 2.13867 10.2015 2.13867C9.96289 2.13867 9.72702 2.18993 9.50988 2.28897L2.36822 5.53897C2.22034 5.60417 2.09461 5.71097 2.00635 5.84635C1.91809 5.98173 1.87109 6.13986 1.87109 6.30147C1.87109 6.46308 1.91809 6.62121 2.00635 6.75659C2.09461 6.89197 2.22034 6.99877 2.36822 7.06397L9.51822 10.3223C9.73535 10.4213 9.97123 10.4726 10.2099 10.4726C10.4485 10.4726 10.6844 10.4213 10.9015 10.3223L18.0515 7.0723C18.1994 7.0071 18.3252 6.9003 18.4134 6.76492C18.5017 6.62954 18.5487 6.47142 18.5487 6.3098C18.5487 6.14819 18.5017 5.99006 18.4134 5.85468C18.3252 5.7193 18.1994 5.61251 18.0515 5.5473L10.8932 2.28897Z" stroke="#333333" stroke-width="1.5" stroke-linecap="round" stroke-linejoin="round"/>
</svg>
