<svg width="21" height="21" viewBox="0 0 21 21" fill="none" xmlns="http://www.w3.org/2000/svg">
<path d="M1.86719 17.9717C1.86707 16.8935 2.12845 15.8314 2.62892 14.8764C3.12939 13.9214 3.85401 13.1021 4.74065 12.4886C5.62729 11.8751 6.64949 11.4859 7.71959 11.3542C8.78969 11.2225 9.87577 11.3523 10.8847 11.7325M18.0155 14.3267C18.3475 13.9947 18.534 13.5445 18.534 13.075C18.534 12.6055 18.3475 12.1553 18.0155 11.8233C17.6836 11.4914 17.2333 11.3049 16.7639 11.3049C16.2944 11.3049 15.8442 11.4914 15.5122 11.8233L12.1705 15.1667C11.9724 15.3647 11.8274 15.6095 11.7489 15.8783L11.0514 18.27C11.0304 18.3417 11.0292 18.4177 11.0477 18.4901C11.0663 18.5624 11.1039 18.6285 11.1567 18.6813C11.2095 18.7341 11.2756 18.7718 11.3479 18.7903C11.4203 18.8088 11.4963 18.8076 11.568 18.7867L13.9597 18.0892C14.2286 18.0107 14.4733 17.8656 14.6714 17.6675L18.0155 14.3267ZM12.7005 7.13835C12.7005 9.43953 10.835 11.305 8.53385 11.305C6.23267 11.305 4.36719 9.43953 4.36719 7.13835C4.36719 4.83716 6.23267 2.97168 8.53385 2.97168C10.835 2.97168 12.7005 4.83716 12.7005 7.13835Z" stroke="#333333" stroke-width="1.5" stroke-linecap="round" stroke-linejoin="round"/>
</svg>
