<svg width="21" height="21" viewBox="0 0 21 21" fill="none" xmlns="http://www.w3.org/2000/svg">
<path d="M5.26919 8.38897L2.35253 9.7223C2.20936 9.7896 2.08831 9.89626 2.00352 10.0298C1.91873 10.1634 1.8737 10.3183 1.8737 10.4765C1.8737 10.6347 1.91873 10.7896 2.00352 10.9231C2.08831 11.0567 2.20936 11.1633 2.35253 11.2306L9.51919 14.489C9.73519 14.5868 9.96958 14.6374 10.2067 14.6374C10.4438 14.6374 10.6782 14.5868 10.8942 14.489L18.0442 11.239C18.1921 11.1738 18.3178 11.067 18.4061 10.9316C18.4943 10.7962 18.5413 10.6381 18.5413 10.4765C18.5413 10.3149 18.4943 10.1567 18.4061 10.0213C18.3178 9.88597 18.1921 9.77917 18.0442 9.71397L15.1275 8.38897M5.26919 12.5556L2.35253 13.889C2.20936 13.9563 2.08831 14.0629 2.00352 14.1965C1.91873 14.33 1.8737 14.4849 1.8737 14.6431C1.8737 14.8013 1.91873 14.9563 2.00352 15.0898C2.08831 15.2234 2.20936 15.33 2.35253 15.3973L9.51919 18.6556C9.73519 18.7534 9.96958 18.804 10.2067 18.804C10.4438 18.804 10.6782 18.7534 10.8942 18.6556L18.0442 15.4056C18.1921 15.3404 18.3178 15.2336 18.4061 15.0983C18.4943 14.9629 18.5413 14.8047 18.5413 14.6431C18.5413 14.4815 18.4943 14.3234 18.4061 14.188C18.3178 14.0526 18.1921 13.9458 18.0442 13.8806L15.1275 12.5556M10.8942 2.28897C10.6771 2.18993 10.4412 2.13867 10.2025 2.13867C9.96387 2.13867 9.72799 2.18993 9.51086 2.28897L2.36919 5.53897C2.22132 5.60417 2.09559 5.71097 2.00733 5.84635C1.91906 5.98173 1.87207 6.13986 1.87207 6.30147C1.87207 6.46308 1.91906 6.62121 2.00733 6.75659C2.09559 6.89197 2.22132 6.99877 2.36919 7.06397L9.51919 10.3223C9.73633 10.4213 9.9722 10.4726 10.2109 10.4726C10.4495 10.4726 10.6854 10.4213 10.9025 10.3223L18.0525 7.0723C18.2004 7.0071 18.3261 6.9003 18.4144 6.76492C18.5027 6.62954 18.5496 6.47142 18.5496 6.3098C18.5496 6.14819 18.5027 5.99006 18.4144 5.85468C18.3261 5.7193 18.2004 5.61251 18.0525 5.5473L10.8942 2.28897Z" stroke="#333333" stroke-width="1.5" stroke-linecap="round" stroke-linejoin="round"/>
</svg>
