<svg width="21" height="21" viewBox="0 0 21 21" fill="none" xmlns="http://www.w3.org/2000/svg">
<path d="M15.2005 7.97201H16.8672C17.3092 7.97201 17.7331 8.1476 18.0457 8.46016C18.3583 8.77272 18.5339 9.19664 18.5339 9.63867V18.8053L15.2005 15.472H10.2005C9.75849 15.472 9.33457 15.2964 9.02201 14.9839C8.70945 14.6713 8.53385 14.2474 8.53385 13.8053V12.972M11.8672 7.97201C11.8672 8.41403 11.6916 8.83796 11.379 9.15052C11.0665 9.46308 10.6425 9.63867 10.2005 9.63867H5.20052L1.86719 12.972V3.80534C1.86719 2.88867 2.61719 2.13867 3.53385 2.13867H10.2005C10.6425 2.13867 11.0665 2.31427 11.379 2.62683C11.6916 2.93939 11.8672 3.36331 11.8672 3.80534V7.97201Z" stroke="#333333" stroke-width="1.5" stroke-linecap="round" stroke-linejoin="round"/>
</svg>
