<svg width="21" height="21" viewBox="0 0 21 21" fill="none" xmlns="http://www.w3.org/2000/svg">
<path d="M4.36833 2.97266C3.9263 2.97266 3.50238 3.14825 3.18982 3.46081C2.87725 3.77337 2.70166 4.1973 2.70166 4.63932M16.035 2.97266C16.477 2.97266 16.9009 3.14825 17.2135 3.46081C17.5261 3.77337 17.7017 4.1973 17.7017 4.63932M17.7017 16.306C17.7017 16.748 17.5261 17.1719 17.2135 17.4845C16.9009 17.7971 16.477 17.9727 16.035 17.9727M4.36833 17.9727C3.9263 17.9727 3.50238 17.7971 3.18982 17.4845C2.87725 17.1719 2.70166 16.748 2.70166 16.306M7.70166 2.97266H8.53499M7.70166 17.9727H8.53499M11.8683 2.97266H12.7017M11.8683 17.9727H12.7017M2.70166 7.97266V8.80599M17.7017 7.97266V8.80599M2.70166 12.1393V12.9727M17.7017 12.1393V12.9727M6.03499 7.13932H12.7017M6.03499 10.4727H14.3683M6.03499 13.806H11.035" stroke="#333333" stroke-width="1.5" stroke-linecap="round" stroke-linejoin="round"/>
</svg>
