<svg width="20" height="20" viewBox="0 0 20 20" fill="none" xmlns="http://www.w3.org/2000/svg">
<path d="M6.66699 4.16536C6.66699 4.38638 6.75479 4.59834 6.91107 4.75462C7.06735 4.9109 7.27931 4.9987 7.50033 4.9987C7.72134 4.9987 7.9333 4.9109 8.08958 4.75462C8.24586 4.59834 8.33366 4.38638 8.33366 4.16536C8.33366 3.94435 8.24586 3.73239 8.08958 3.57611C7.9333 3.41983 7.72134 3.33203 7.50033 3.33203C7.27931 3.33203 7.06735 3.41983 6.91107 3.57611C6.75479 3.73239 6.66699 3.94435 6.66699 4.16536ZM6.66699 9.9987C6.66699 10.2197 6.75479 10.4317 6.91107 10.588C7.06735 10.7442 7.27931 10.832 7.50033 10.832C7.72134 10.832 7.9333 10.7442 8.08958 10.588C8.24586 10.4317 8.33366 10.2197 8.33366 9.9987C8.33366 9.77768 8.24586 9.56572 8.08958 9.40944C7.9333 9.25316 7.72134 9.16536 7.50033 9.16536C7.27931 9.16536 7.06735 9.25316 6.91107 9.40944C6.75479 9.56572 6.66699 9.77768 6.66699 9.9987ZM6.66699 15.832C6.66699 16.053 6.75479 16.265 6.91107 16.4213C7.06735 16.5776 7.27931 16.6654 7.50033 16.6654C7.72134 16.6654 7.9333 16.5776 8.08958 16.4213C8.24586 16.265 8.33366 16.053 8.33366 15.832C8.33366 15.611 8.24586 15.3991 8.08958 15.2428C7.9333 15.0865 7.72134 14.9987 7.50033 14.9987C7.27931 14.9987 7.06735 15.0865 6.91107 15.2428C6.75479 15.3991 6.66699 15.611 6.66699 15.832ZM11.667 4.16536C11.667 4.38638 11.7548 4.59834 11.9111 4.75462C12.0674 4.9109 12.2793 4.9987 12.5003 4.9987C12.7213 4.9987 12.9333 4.9109 13.0896 4.75462C13.2459 4.59834 13.3337 4.38638 13.3337 4.16536C13.3337 3.94435 13.2459 3.73239 13.0896 3.57611C12.9333 3.41983 12.7213 3.33203 12.5003 3.33203C12.2793 3.33203 12.0674 3.41983 11.9111 3.57611C11.7548 3.73239 11.667 3.94435 11.667 4.16536ZM11.667 9.9987C11.667 10.2197 11.7548 10.4317 11.9111 10.588C12.0674 10.7442 12.2793 10.832 12.5003 10.832C12.7213 10.832 12.9333 10.7442 13.0896 10.588C13.2459 10.4317 13.3337 10.2197 13.3337 9.9987C13.3337 9.77768 13.2459 9.56572 13.0896 9.40944C12.9333 9.25316 12.7213 9.16536 12.5003 9.16536C12.2793 9.16536 12.0674 9.25316 11.9111 9.40944C11.7548 9.56572 11.667 9.77768 11.667 9.9987ZM11.667 15.832C11.667 16.053 11.7548 16.265 11.9111 16.4213C12.0674 16.5776 12.2793 16.6654 12.5003 16.6654C12.7213 16.6654 12.9333 16.5776 13.0896 16.4213C13.2459 16.265 13.3337 16.053 13.3337 15.832C13.3337 15.611 13.2459 15.3991 13.0896 15.2428C12.9333 15.0865 12.7213 14.9987 12.5003 14.9987C12.2793 14.9987 12.0674 15.0865 11.9111 15.2428C11.7548 15.3991 11.667 15.611 11.667 15.832Z" fill="#666666" stroke="#666666" stroke-width="1.5" stroke-linecap="round" stroke-linejoin="round"/>
</svg>
