<svg width="20" height="20" viewBox="0 0 20 20" fill="none" xmlns="http://www.w3.org/2000/svg">
<path d="M17.5 2.5L12.5 7.5M17.5 7.5L12.5 2.5M7.5 15C7.5 16.3807 6.38071 17.5 5 17.5C3.61929 17.5 2.5 16.3807 2.5 15C2.5 13.6193 3.61929 12.5 5 12.5C6.38071 12.5 7.5 13.6193 7.5 15Z" stroke="black" stroke-width="1.5" stroke-linecap="round" stroke-linejoin="round"/>
<path d="M2.56879 7.49929C2.48396 7.50407 2.39949 7.48454 2.32474 7.44287C2.24998 7.40119 2.18785 7.33899 2.14521 7.26314C2.10258 7.18729 2.08109 7.10074 2.08314 7.01308C2.08519 6.92541 2.11069 6.84004 2.15681 6.7664L4.60895 2.74463C4.64748 2.67302 4.70329 2.6129 4.77096 2.57009C4.83862 2.52728 4.91586 2.50324 4.99517 2.50031C5.07449 2.49737 5.1532 2.51563 5.22366 2.55332C5.29413 2.59101 5.35397 2.64685 5.39737 2.71543L7.83372 6.75213C7.88174 6.82331 7.90998 6.90669 7.91539 6.99325C7.92079 7.0798 7.90316 7.16623 7.86438 7.24319C7.82561 7.32014 7.76719 7.38468 7.69543 7.42982C7.62367 7.47497 7.54131 7.49899 7.45728 7.49929H2.56879Z" stroke="black" stroke-width="1.5" stroke-linecap="round" stroke-linejoin="round"/>
<path d="M16.5 12.5H13.5C12.9477 12.5 12.5 12.9477 12.5 13.5V16.5C12.5 17.0523 12.9477 17.5 13.5 17.5H16.5C17.0523 17.5 17.5 17.0523 17.5 16.5V13.5C17.5 12.9477 17.0523 12.5 16.5 12.5Z" stroke="black" stroke-width="1.5" stroke-linecap="round" stroke-linejoin="round"/>
<path d="M15 6V10" stroke="black" stroke-width="1.5" stroke-linecap="round" stroke-linejoin="round"/>
<path d="M12.083 15L9.16634 15" stroke="black" stroke-width="1.5" stroke-linecap="round" stroke-linejoin="round"/>
<path d="M9.7959 4.78711L6.87923 4.78711" stroke="black" stroke-width="1.5" stroke-linecap="round" stroke-linejoin="round"/>
</svg>
