<svg width="32" height="24" viewBox="0 0 32 24" fill="none" xmlns="http://www.w3.org/2000/svg">
<path d="M31.0003 9.06237L24.3833 1.8325C24.0656 1.33969 23.6019 1.04175 23.1135 1.04175H8.88681C8.39833 1.04175 7.93463 1.33969 7.61702 1.83187L1 9.06299V14.8704H31.0003V9.06237Z" stroke="#CACACA"/>
<path d="M22.2695 11.0555C22.2695 10.0466 22.9178 9.21376 23.7219 9.21313H31.0003V20.6136C31.0003 21.9481 30.1394 23.0418 29.0763 23.0418H2.92393C1.86088 23.0418 1 21.9474 1 20.6136V9.21313H8.27833C9.08246 9.21313 9.73073 10.0447 9.73073 11.0536V11.0674C9.73073 12.0763 10.3862 12.8909 11.1897 12.8909H20.8106C21.6141 12.8909 22.2695 12.0687 22.2695 11.0599V11.0555Z" fill="#ECEAF5" stroke="#CACACA"/>
</svg>
