<svg xmlns="http://www.w3.org/2000/svg" width="155.738" height="34.117" viewBox="0 0 155.738 34.117"><g transform="translate(2.087 2.071)"><rect width="19.125" height="19.125" transform="translate(14.972 1.464) rotate(45)" fill="none" stroke="rgba(142,202,233,0.08)" stroke-miterlimit="10" stroke-width="5"/><rect width="30" height="30" rx="6" fill="#17366f"/><path d="M33.653,19.95,20.13,33.473,33.653,47,47.176,33.473ZM20.922,33.473,33.653,20.742,46.384,33.473,33.653,46.2Z" transform="translate(-18.653 -18.486)" fill="#2f5388"/><g transform="translate(1.139 7.669)"><g transform="translate(10.517)"><path d="M175.249,129.767l-.836-2.574h-4.1l-.836,2.574H165.94l4.888-14.007h3.291l3.667,10.509v-5.406a1.408,1.408,0,0,1,1.406-1.406h1.936v10.311h-5.881Zm-1.894-5.88-.991-3.066-.991,3.066Z" transform="translate(-165.422 -114.936)" fill="#fff"/><path d="M167.317,111.494l4.295,12.308v-7.57a1.04,1.04,0,0,1,1.04-1.04h1.569v9.577h-5.248l-.836-2.574H163.5l-.836,2.574h-2.756l4.632-13.274h2.77m-2.99,8.127h2.99l-1.5-4.626-1.5,4.626m3.511-8.861h-3.813l-.172.492-4.632,13.274-.34.975H163.2l.164-.507.671-2.066H167.6l.671,2.066.164.507h6.514V114.458h-2.3a1.775,1.775,0,0,0-1.773,1.773v3.241l-2.869-8.22-.172-.492h0Zm-2.5,8.127.487-1.506.487,1.506Z" transform="translate(-158.88 -110.303)" fill="#17366f"/><g transform="translate(11.751)"><ellipse cx="1.915" cy="1.915" rx="1.915" ry="1.915" transform="translate(0.367 0.367)" fill="#fff"/><path d="M321.342,105.264a1.548,1.548,0,1,1-1.548,1.548,1.548,1.548,0,0,1,1.548-1.548m0-.734a2.282,2.282,0,1,0,2.282,2.282,2.284,2.284,0,0,0-2.282-2.282Z" transform="translate(-319.06 -104.53)" fill="#17366f"/></g></g><g transform="translate(0 5.452)"><path d="M30.1,192.028l-.2-2.178H27.59l.461,4.992A6.61,6.61,0,0,1,30.1,192.028Z" transform="translate(-26.704 -189.042)" fill="#8ecae9"/><path d="M18.721,179.648l.2,2.178a6.6,6.6,0,0,0-2.052,2.814l-.461-4.992h2.315m.737-.808H15.52l.081.882.461,4.992.3,3.281,1.249-3.049a5.834,5.834,0,0,1,1.787-2.472l.363-.27-.041-.451-.2-2.178-.067-.734h0Z" transform="translate(-15.52 -178.84)" fill="#17366f"/><g transform="translate(0.652 0.006)"><path d="M46.958,189.94h-2.21a7.372,7.372,0,0,1-.063,2.5c-.287,1.675-.909,2.965-1.39,2.883-.12-.021-.22-.125-.3-.3-.041-.189-.09-.371-.146-.546a2.9,2.9,0,0,0-2.053-2.209,1.8,1.8,0,0,0-.187-.022c-1.673-.12-3.372,1.954-3.853,4.766q-.047.277-.077.55h2.312c.008-.051.016-.1.026-.156.287-1.675.909-2.965,1.39-2.883.137.023.248.157.329.373q.043.185.1.361a2.948,2.948,0,0,0,2.081,2.3l.013,0c1.728.284,3.53-1.836,4.028-4.745a8.2,8.2,0,0,0,0-2.882Z" transform="translate(-35.78 -189.132)" fill="#8ecae9"/><path d="M35.588,179.728a8.2,8.2,0,0,1,0,2.882c-.468,2.734-2.086,4.77-3.714,4.77a1.88,1.88,0,0,1-.313-.026l-.013,0a2.949,2.949,0,0,1-2.081-2.3q-.053-.176-.1-.361c-.081-.216-.192-.349-.329-.373a.3.3,0,0,0-.044,0c-.475,0-1.068,1.263-1.346,2.887-.009.052-.018.1-.026.156H25.309q.03-.273.077-.55c.468-2.734,2.086-4.77,3.714-4.77.046,0,.092,0,.139.005q.094.007.187.022a2.9,2.9,0,0,1,2.053,2.209c.056.175.1.357.146.546.078.171.178.276.3.3a.3.3,0,0,0,.044,0c.475,0,1.068-1.263,1.346-2.887a7.334,7.334,0,0,0,.063-2.5h2.21m.669-.808H32.388l.2.969a6.578,6.578,0,0,1-.068,2.2,8.326,8.326,0,0,1-.408,1.544,3.5,3.5,0,0,0-2.546-2.372,2.524,2.524,0,0,0-.266-.032c-.065,0-.131-.007-.2-.007a3.832,3.832,0,0,0-2.928,1.67,8.528,8.528,0,0,0-1.582,3.772c-.034.2-.062.4-.084.6l-.1.9h3.9l.106-.683c.007-.048.015-.1.023-.144a8.338,8.338,0,0,1,.416-1.566,3.5,3.5,0,0,0,2.549,2.378l.026,0a2.717,2.717,0,0,0,.437.035,3.832,3.832,0,0,0,2.928-1.67,8.528,8.528,0,0,0,1.582-3.772,9.04,9.04,0,0,0,0-3.168l-.124-.657h0Z" transform="translate(-24.41 -178.92)" fill="#17366f"/></g></g></g><g transform="translate(40.056 9.543)"><path d="M562.685,135.12l-3.472,12.041h-2.718l-2.157-7.55-2.157,7.55h-2.718L545.99,135.12h2.881l2.069,7.875,2.068-7.875H555.8l2.054,7.846,2.083-7.846Z" transform="translate(-545.99 -134.75)" fill="#17366f"/><path d="M765.69,182.946a4.506,4.506,0,1,1,9.012,0,5.963,5.963,0,0,1-.059.842h-6.338a1.83,1.83,0,0,0,1.891,1.581,1.782,1.782,0,0,0,1.6-.679h2.645a4.164,4.164,0,0,1-4.24,2.792,4.345,4.345,0,0,1-4.506-4.536Zm6.441-.857a1.841,1.841,0,0,0-1.935-1.6,1.813,1.813,0,0,0-1.906,1.6Z" transform="translate(-749.572 -174.864)" fill="#17366f"/><path d="M907.27,141.6v.886h-2.63V130.08h2.63v4.64a2.92,2.92,0,0,1,2.482-1.093,4.549,4.549,0,0,1,0,9.072,2.919,2.919,0,0,1-2.482-1.093Zm4.122-3.442a2.07,2.07,0,0,0-2.053-2.29,2.3,2.3,0,0,0,0,4.579A2.054,2.054,0,0,0,911.392,138.162Z" transform="translate(-878.328 -130.08)" fill="#17366f"/><path d="M1051.056,135.02h-2.778a2,2,0,0,0-2.231-1.684c-1.285,0-1.95.5-1.95,1.226,0,.9.931,1.211,3.28,1.7,2.777.576,3.723,1.95,3.723,3.753,0,2.305-2.172,3.709-4.861,3.709-2.97,0-5.141-1.61-5.26-4.181h2.763c.147,1.153,1.153,1.921,2.689,1.921,1.093,0,1.906-.547,1.906-1.329,0-.96-.813-1.345-2.955-1.743-2.615-.488-4.034-1.566-4.034-3.827s2.157-3.472,4.876-3.472S1050.923,132.73,1051.056,135.02Z" transform="translate(-1004.665 -131.016)" fill="#17366f"/><path d="M1195.073,186.379a2.92,2.92,0,0,1-2.482,1.093,4.549,4.549,0,0,1,0-9.072,2.919,2.919,0,0,1,2.482,1.093v-.886h2.63V190.87h-2.63v-4.491Zm.044-3.442a2.1,2.1,0,0,0-2.113-2.29,2.3,2.3,0,0,0,0,4.579A2.115,2.115,0,0,0,1195.117,182.937Z" transform="translate(-1141.252 -174.855)" fill="#17366f"/><path d="M1335.571,186.239V181.23h2.63V185.8c0,1.315.532,2.039,1.522,2.039s1.654-.813,1.654-2.157V181.23h2.63v8.658h-2.63V189a2.842,2.842,0,0,1-2.423,1.093c-2.009,0-3.384-1.463-3.384-3.856Z" transform="translate(-1277.643 -177.477)" fill="#17366f"/><path d="M1466.48,182.946a4.213,4.213,0,0,1,4.21-4.536,2.92,2.92,0,0,1,2.482,1.093v-.886h2.63v8.658h-2.63v-.886a2.921,2.921,0,0,1-2.482,1.093,4.213,4.213,0,0,1-4.21-4.536Zm6.737,0a2.1,2.1,0,0,0-2.113-2.29,2.3,2.3,0,0,0,0,4.579A2.115,2.115,0,0,0,1473.217,182.946Z" transform="translate(-1398.949 -174.864)" fill="#17366f"/><path d="M1615.5,178.617h2.63v.886a2.842,2.842,0,0,1,2.423-1.093,3.225,3.225,0,0,1,1.138.147l.029,2.467a2.912,2.912,0,0,0-1.344-.3,2.01,2.01,0,0,0-2.245,2.113v4.433h-2.63v-8.658Z" transform="translate(-1537.036 -174.864)" fill="#17366f"/><path d="M1702.09,182.946a4.506,4.506,0,1,1,9.012,0,5.973,5.973,0,0,1-.059.842h-6.338a1.83,1.83,0,0,0,1.891,1.581,1.783,1.783,0,0,0,1.6-.679h2.645a4.164,4.164,0,0,1-4.24,2.792,4.345,4.345,0,0,1-4.506-4.536Zm6.441-.857a1.841,1.841,0,0,0-1.935-1.6,1.813,1.813,0,0,0-1.906,1.6Z" transform="translate(-1617.274 -174.864)" fill="#17366f"/><path d="M1889.2,144.827h-4.669l-.842,2.334h-2.778l4.669-12.041h2.792l4.669,12.041h-3Zm-.828-2.334-1.507-4.2-1.507,4.2Z" transform="translate(-1782.975 -134.75)" fill="#17366f"/><path d="M2060.409,135.12v12.041h-2.689V135.12Z" transform="translate(-1946.813 -134.75)" fill="#17366f"/></g></g></svg>